# xmcd CD database file
#
# Track frame offsets:
#	150
#	20781
#	37991
#	51119
#	68387
#	93904
#	103057
#	118401
#	140365
#	153333
#	167024
#
# Disc length: 2473 seconds
#
# Revision: 1
# Processed by: cddbd v1.5.2PL0 Copyright (c) Steve Scherf et al.
# Submitted via: CDex 1.51
#
DISCID=8c09a70b
DTITLE=Mannheim Steamroller Fresh Aire - Exclusive collection Best Fresh Aire 
DYEAR=2000
DGENRE=New Age
TTITLE0=Prelude/Chocolate Fudge Fresh Aire I
TTITLE1=The Fourth Door Fresh Aire II
TTITLE2=Morning Fresh Aire III
TTITLE3=Four Rows of Jacks Fresh Aire IV
TTITLE4=Dancin' in the Stars Fresh Aire V
TTITLE5=Twilight at Rhodes Fresh Aire VI
TTITLE6=The 7 Metals of Alchemy Fresh Aire VII
TTITLE7=The Steamroller Fresh Aire VIII
TTITLE8=Wassail, Wassail Xmas
TTITLE9=Holly and the Ivy Fresh Aire Xmas
TTITLE10=Christmas Lullaby Xmas in the Aire
EXTD=YEAR: 2000
EXTT0=
EXTT1=
EXTT2=
EXTT3=
EXTT4=
EXTT5=
EXTT6=
EXTT7=
EXTT8=
EXTT9=
EXTT10=
PLAYORDER=
